# xmcd
#
# Track frame offsets:
#	187
#	13620
#	28887
#	44707
#	61045
#	74042
#	89677
#	104960
#	124977
#	148167
#	162977
#	180217
#	201940
#	219782
#	236870
#	253837
#
# Disc length: 3611 seconds
#
# Revision: 1
# Processed by: cddbd v1.5.1PL0 Copyright (c) Steve Scherf et al.
# Submitted via: CDex 1.50Beta5
#
DISCID=fc0e1910
DTITLE=柏原芳恵 - 柏原芳恵 NEW BEST
DYEAR=1993
DGENRE=Pop
TTITLE0=ハロー・グッバイ
TTITLE1=恋人たちのキャフェテラス
TTITLE2=あの場所から
TTITLE3=花梨
TTITLE4=渚のシンデレラ
TTITLE5=春なのに
TTITLE6=ちょっとなら媚薬
TTITLE7=夏模様
TTITLE8=タイニー・メモリー
TTITLE9=カムフラージュ
TTITLE10=ト・レ・モ・ロ
TTITLE11=最愛
TTITLE12=ロンリー・カナリヤ
TTITLE13=待ちくたびれてヨコハマ
TTITLE14=し・の・び愛
TTITLE15=春ごころ
EXTD=
EXTT0=
EXTT1=
EXTT2=
EXTT3=
EXTT4=
EXTT5=
EXTT6=
EXTT7=
EXTT8=
EXTT9=
EXTT10=
EXTT11=
EXTT12=
EXTT13=
EXTT14=
EXTT15=
PLAYORDER=
